Coordinates
version=1
nRows=14
nColumns=36
inDegrees=yes

Units are S.I. units (second, meters, Newtons, ...)
If the header above contains a line with 'inDegrees', this indicates whether rotational values are in degrees (yes) or radians (no).

endheader
time	pelvis_tilt	pelvis_list	pelvis_rotation	pelvis_tx	pelvis_ty	pelvis_tz	hip_flexion_r	hip_adduction_r	hip_rotation_r	knee_angle_r	knee_angle_r_beta	ankle_angle_r	subtalar_angle_r	mtp_angle_r	hip_flexion_l	hip_adduction_l	hip_rotation_l	knee_angle_l	knee_angle_l_beta	ankle_angle_l	subtalar_angle_l	mtp_angle_l	lumbar_extension	lumbar_bending	lumbar_rotation	arm_flex_r	arm_add_r	arm_rot_r	elbow_flex_r	pro_sup_r	arm_flex_l	arm_add_l	arm_rot_l	elbow_flex_l	pro_sup_l
      4.47083330	     -2.97424253	      0.24746800	      1.33789342	      0.38614777	      0.91188145	     -0.06411198	     -1.28492338	     -2.52580398	     -1.51500670	      1.03985521	      0.01814890	      4.79177168	     -7.68723785	     -7.49999987	      0.02765856	     -4.54769459	     -3.94420118	      1.10211100	      0.01923547	      3.37031603	     -3.21597150	     -7.49999987	     -2.60699393	      2.23317946	      0.45915115	      4.31241507	    -12.73435052	     13.30681087	     41.81872930	     75.99327738	      1.76616568	    -11.37105140	     10.24790463	     43.32110041	     79.24224601
      4.47500000	     -2.85527488	      0.25448561	      1.32166288	      0.38614258	      0.91119762	     -0.06279493	     -1.43665959	     -2.52871970	     -1.39298811	      1.01095904	      0.01764456	      4.84324896	     -7.74260668	     -7.49999987	     -0.14225817	     -4.54207212	     -3.78604914	      1.06537319	      0.01859427	      3.35333440	     -3.46433177	     -7.49999987	     -2.69230054	      2.23411497	      0.49973401	      4.39998861	    -12.97152380	     15.07079765	     41.88954424	     69.42057477	      1.91753544	    -11.65714517	     12.33840004	     43.21189759	     71.47498391
      4.47916670	     -2.91533498	      0.22316189	      1.25862883	      0.38657980	      0.91090972	     -0.06333290	     -1.38074771	     -2.49883584	     -1.36112289	      1.01445366	      0.01770556	      5.00705061	     -7.54766091	     -7.49999987	     -0.10614195	     -4.59318390	     -3.94940472	      1.06068173	      0.01851239	      3.56558726	     -3.17338625	     -7.49999987	     -2.57025978	      2.32023203	      0.47396230	      4.33495670	    -12.65598643	     13.88074998	     41.57033815	     75.75797726	      1.67879302	    -11.17285698	     10.56504211	     42.73626294	     78.71637638
      4.48333330	     -2.71843659	      0.23226028	      1.27639630	      0.38704049	      0.90989065	     -0.06384889	     -1.63845852	     -2.51886524	     -1.46062822	      0.97765915	      0.01706337	      5.20508383	     -7.24168904	     -7.49999987	     -0.35135017	     -4.58989153	     -3.70406778	      1.02305558	      0.01785569	      3.49014555	     -3.54253103	     -7.49999987	     -2.75845390	      2.34638641	      0.48143625	      4.36938310	    -12.75073903	     14.81881832	     41.73763244	     70.74796847	      1.67487496	    -11.26559287	     11.77146945	     42.89636765	     72.89029290
      4.48750000	     -2.76057474	      0.21890923	      1.27209876	      0.38683310	      0.90906352	     -0.06329264	     -1.61955567	     -2.51284120	     -1.42719448	      0.97148981	      0.01695570	      5.32776042	     -7.12047856	     -7.49999987	     -0.33256874	     -4.61085162	     -3.73937900	      1.02363432	      0.01786579	      3.65839562	     -3.44260567	     -7.49999987	     -2.62953888	      2.35915677	      0.49364445	      4.23943285	    -12.50707512	     13.91325284	     41.52948796	     76.09513923	      1.52086253	    -10.95601957	     10.57506399	     42.62196882	     79.16667154
      4.49166670	     -2.61359998	      0.23494060	      1.28956857	      0.38662958	      0.91153163	     -0.06359374	     -1.82006400	     -2.54333542	     -1.44192474	      0.94299081	      0.01645829	      5.35473759	     -7.02059459	     -7.49999987	     -0.51580079	     -4.60605227	     -3.72448451	      0.99652117	      0.01739258	      3.67016640	     -3.31080565	     -7.49999987	     -2.73952241	      2.37277937	      0.52266473	      4.27839395	    -12.64229815	     15.16111806	     41.60767596	     70.03730747	      1.61487175	    -11.09137379	     12.13889297	     42.52808375	     72.08916835
      4.49583330	     -2.70950265	      0.25548641	      1.32493455	      0.38802107	      0.91145836	     -0.06445833	     -1.76960715	     -2.60639269	     -1.41869766	      0.93178792	      0.01626277	      5.36453153	     -6.91715908	     -7.49999987	     -0.43916871	     -4.56592881	     -3.52731054	      0.98768730	      0.01723840	      3.57293779	     -3.50184959	     -7.49999987	     -2.50440431	      2.35404241	      0.52765915	      4.11451796	    -12.36527681	     14.09551262	     41.18137756	     76.27435368	      1.45684588	    -10.69774401	     10.82487026	     42.09576583	     79.36934141
      4.50000000	     -2.71782325	      0.29894495	      1.34678807	      0.38790600	      0.91048239	     -0.06330639	     -1.80904708	     -2.66218550	     -1.39973257	      0.88289886	      0.01540949	      5.40416919	     -6.88245640	     -7.49999987	     -0.43282145	     -4.49925174	     -3.37208464	      0.96041372	      0.01676238	      3.50720924	     -3.57263021	     -7.49999987	     -2.41416998	      2.29208054	      0.50504279	      4.04783688	    -12.26400631	     14.18445470	     41.04126532	     76.25409441	      1.36412092	    -10.62617487	     10.93698372	     41.91300169	     79.22307466
      4.50416670	     -2.71007245	      0.33383338	      1.31329426	      0.38762719	      0.91043954	     -0.06279171	     -1.85494326	     -2.70348569	     -1.30535173	      0.83931130	      0.01464875	      5.40420296	     -6.79050226	     -7.49999987	     -0.44521457	     -4.44781546	     -3.30725911	      0.93818687	      0.01637445	      3.45987758	     -3.48067223	     -7.49999987	     -2.35542458	      2.23897935	      0.57225993	      3.98497306	    -12.17985333	     14.23083169	     40.90178617	     76.32682846	      1.34382228	    -10.54054463	     11.10472051	     41.65825388	     79.30686587
      4.50833330	     -2.69134973	      0.37845221	      1.25165066	      0.38803971	      0.90927529	     -0.06297836	     -1.88852157	     -2.76598695	     -1.32019979	      0.81903409	      0.01429484	      5.48579346	     -6.63846435	     -7.49999987	     -0.48644361	     -4.38513561	     -3.34142086	      0.90797656	      0.01584718	      3.50530467	     -3.27937955	     -7.49999987	     -2.30656116	      2.17899725	      0.62805409	      3.95384096	    -12.09511026	     14.42085192	     40.76759474	     76.28098653	      1.27600855	    -10.48067286	     11.31458258	     41.45438813	     79.21487153
      4.51250000	     -2.68254279	      0.41966363	      1.21512815	      0.38995757	      0.90958855	     -0.06228222	     -1.95166755	     -2.80580697	     -1.30087470	      0.77527036	      0.01353102	      5.47093346	     -6.60074685	     -7.49999987	     -0.53057516	     -4.35049640	     -3.27317678	      0.88852734	      0.01550773	      3.47338289	     -3.26466408	     -7.49999987	     -2.18675280	      2.09289572	      0.64346579	      3.82919598	    -11.95390718	     14.47699830	     40.60433408	     76.19746085	      1.11900067	    -10.41816438	     11.32258977	     41.23009531	     79.12021829
      4.51666670	     -2.66329129	      0.45823585	      1.20126637	      0.38922502	      0.91090408	     -0.06392752	     -2.02704272	     -2.86086972	     -1.31008241	      0.76947686	      0.01342990	      5.49741735	     -6.48354667	     -7.49999987	     -0.58834969	     -4.30793908	     -3.17627601	      0.87942612	      0.01534888	      3.49614740	     -3.27100171	     -7.49999987	     -2.14022721	      2.05555315	      0.64971858	      3.76924465	    -11.89102121	     14.62697860	     40.45771662	     76.43499426	      0.99576739	    -10.31689127	     11.31955379	     41.05916469	     79.26898935
      4.52083330	     -2.63911565	      0.49208647	      1.17462751	      0.38882860	      0.91255616	     -0.06310800	     -2.09842094	     -2.88218713	     -1.26149760	      0.75549041	      0.01318580	      5.49049381	     -6.43287853	     -7.49999987	     -0.65172939	     -4.29155373	     -3.04764186	      0.86575064	      0.01511020	      3.40389182	     -3.37280943	     -7.49999987	     -2.11622395	      1.99519637	      0.69950164	      3.70508309	    -11.78063525	     14.68491739	     40.26069566	     76.35878008	      0.93471372	    -10.21904937	     11.35075571	     40.82801648	     79.30057895
      4.52500000	     -2.60971208	      0.50305040	      1.18003888	      0.38910015	      0.91272028	     -0.06281946	     -2.18078894	     -2.86643399	     -1.18749957	      0.73942134	      0.01290534	      5.49077332	     -6.42029640	     -7.49999987	     -0.70864870	     -4.30238527	     -2.95567886	      0.86799880	      0.01514944	      3.32935393	     -3.45110986	     -7.49999987	     -2.06657779	      1.96472787	      0.74147407	      3.77436568	    -11.87287226	     15.91176849	     39.99303709	     72.86255699	      1.02848024	    -10.35076913	     12.67764948	     40.50837598	     75.26522700
